<?xml version="1.0" standalone="no"?>
<!DOCTYPE svg PUBLIC "-//W3C//DTD SVG 20010904//EN"
 "http://www.w3.org/TR/2001/REC-SVG-20010904/DTD/svg10.dtd">
<svg version="1.0" xmlns="http://www.w3.org/2000/svg"
 width="316" height="316" viewBox="0 0 900.000000 900.000000"
 preserveAspectRatio="xMidYMid meet">
<metadata>
Created by potrace 1.10, written by Peter Selinger 2001-2011
</metadata>
<g transform="translate(0.000000,900.000000) scale(0.100000,-0.100000)"
fill="#900028" stroke="none">
<path d="M0 4500 l0 -4500 4500 0 4500 0 0 4500 0 4500 -4500 0 -4500 0 0
-4500z m4682 3664 c26 -8 53 -14 62 -14 8 0 27 -7 43 -15 15 -7 48 -23 73 -35
95 -44 147 -84 251 -191 65 -67 92 -89 112 -89 14 0 38 -5 54 -11 15 -6 44
-15 63 -19 36 -8 84 -24 135 -46 17 -7 50 -20 75 -29 91 -34 279 -124 375
-180 33 -19 67 -38 75 -42 14 -7 99 -65 205 -139 138 -98 314 -255 424 -379
29 -33 65 -73 80 -90 66 -73 217 -289 308 -440 16 -26 112 -221 128 -260 7
-16 20 -46 28 -65 41 -93 47 -109 47 -119 0 -6 6 -25 14 -43 13 -32 30 -85 60
-200 8 -29 22 -78 30 -109 9 -31 16 -66 16 -79 0 -12 7 -59 15 -104 63 -349
37 -857 -60 -1196 -7 -25 -21 -72 -30 -105 -9 -33 -23 -75 -31 -93 -8 -18 -14
-37 -14 -43 0 -6 -7 -27 -16 -47 -8 -21 -21 -50 -28 -67 -54 -128 -145 -310
-197 -390 -10 -16 -22 -37 -26 -45 -3 -8 -19 -31 -35 -51 -15 -20 -28 -40 -28
-43 0 -11 -147 -203 -214 -281 -178 -206 -489 -469 -671 -565 -11 -6 -33 -19
-50 -30 -16 -11 -52 -31 -80 -45 -27 -14 -57 -30 -65 -35 -21 -13 -173 -82
-257 -116 -46 -19 -51 -29 -28 -60 8 -10 15 -38 15 -61 0 -34 -4 -43 -17 -44
-10 -1 -132 0 -271 1 -187 1 -256 -1 -267 -10 -13 -11 -15 -67 -15 -370 0
-292 -3 -365 -15 -400 -8 -23 -15 -57 -15 -75 0 -18 7 -38 15 -45 22 -18 19
-92 -6 -134 -22 -38 -60 -62 -118 -72 -20 -4 -52 -19 -71 -33 -31 -24 -84 -50
-131 -64 -8 -3 -21 -24 -28 -47 -18 -59 -64 -100 -115 -100 -33 0 -45 7 -77
40 -24 25 -39 51 -41 72 -2 27 -8 33 -33 39 -40 9 -136 60 -142 76 -3 7 -17
13 -32 13 -39 1 -104 34 -129 65 -27 34 -30 110 -5 153 16 28 16 33 -1 83 -13
40 -19 104 -23 247 -7 207 -10 219 -55 188 -12 -9 -31 -16 -41 -16 -11 0 -40
-7 -66 -14 -146 -46 -330 -61 -576 -49 l-150 8 -6 40 c-3 22 -11 60 -17 85 -6
25 -18 81 -27 125 -9 44 -22 98 -28 120 -5 22 -13 60 -17 85 -4 25 -12 66 -19
93 -6 26 -16 68 -22 95 -11 42 -18 79 -35 178 -5 24 -19 41 -61 70 -135 96
-182 131 -263 199 -107 91 -237 218 -316 310 -67 78 -214 270 -214 281 0 3
-12 23 -27 43 -31 40 -48 67 -63 96 -6 11 -19 34 -29 50 -20 30 -111 211 -139
275 -8 19 -19 44 -25 54 -5 11 -13 31 -18 45 -4 14 -24 71 -44 126 -20 55 -41
118 -45 140 -12 56 -29 122 -46 175 -8 25 -14 56 -14 70 0 13 -7 58 -15 100
-22 115 -40 321 -39 460 0 186 30 460 66 605 5 22 13 58 17 80 7 37 18 76 43
150 5 17 13 44 18 60 23 83 124 333 160 395 5 8 21 38 35 65 146 283 397 601
645 814 47 41 101 87 120 104 19 16 53 41 74 55 22 13 44 28 50 33 28 23 103
76 116 82 8 4 29 16 45 27 17 11 39 24 50 30 11 5 47 26 80 45 33 19 67 38 75
41 8 3 44 20 80 36 36 17 81 37 100 46 19 8 47 21 62 29 14 7 33 13 41 13 9 0
28 6 44 14 37 18 90 36 133 45 19 4 45 13 57 19 12 7 36 12 53 12 27 0 44 13
108 80 94 101 157 149 259 199 26 13 56 28 67 33 98 51 379 69 498 32z"/>
<path d="M4355 8121 c-64 -10 -163 -40 -170 -52 -4 -5 -14 -9 -23 -9 -50 0
-290 -196 -307 -250 -3 -11 -10 -20 -14 -20 -11 0 -101 -183 -101 -206 0 -11
-7 -37 -15 -59 -20 -55 -20 -305 0 -360 8 -22 15 -47 15 -55 0 -9 20 -56 44
-105 74 -150 186 -268 333 -351 60 -34 66 -35 140 -31 75 5 153 24 153 39 0
11 85 21 119 13 55 -12 33 -25 -44 -25 -78 0 -100 -14 -40 -26 44 -8 117 3
127 19 5 9 15 8 40 -2 18 -8 66 -16 106 -18 68 -4 79 -2 136 27 190 98 346
298 397 510 25 104 26 275 2 368 -36 147 -120 289 -231 393 -60 57 -179 139
-202 139 -5 0 -21 6 -37 14 -69 34 -134 47 -254 51 -68 2 -146 0 -174 -4z
m-286 -219 c0 -15 -4 -36 -8 -47 -8 -19 -8 -19 -15 3 -10 31 -22 28 -61 -15
-43 -47 -44 -72 -5 -98 29 -20 40 -45 19 -45 -5 0 -15 -14 -21 -31 -6 -18 -14
-27 -20 -21 -10 10 0 42 13 42 5 0 9 9 9 20 0 17 -6 20 -27 18 -26 -3 -28 0
-31 35 -2 26 1 39 12 43 9 3 16 14 16 23 0 18 101 112 112 104 5 -2 8 -16 7
-31z m943 -44 c10 -10 18 -23 18 -29 0 -6 7 -17 16 -26 8 -9 14 -27 12 -42 -2
-20 -9 -27 -30 -29 -20 -2 -28 -9 -28 -23 0 -10 4 -19 9 -19 15 0 24 -41 12
-53 -8 -8 -13 -2 -17 21 -4 18 -11 32 -16 32 -5 0 -11 7 -14 15 -6 15 29 55
48 55 14 0 9 48 -7 54 -8 3 -15 10 -15 16 0 13 -37 50 -49 50 -5 0 -13 -10
-16 -21 -9 -29 -25 -6 -25 37 0 56 3 55 102 -38z m-788 10 c-7 -35 -41 -78
-60 -78 -7 0 -14 -7 -18 -15 -3 -9 -19 -15 -41 -15 -33 0 -35 -2 -35 -32 0
-51 -15 -65 -30 -29 -14 35 -8 61 15 61 9 0 15 9 15 26 0 27 55 94 77 94 20 0
25 -20 6 -27 -26 -9 -53 -34 -53 -50 0 -18 49 -17 56 2 4 8 13 15 21 15 10 0
14 10 13 33 -3 46 -2 47 21 47 18 0 20 -4 13 -32z m566 -8 c0 -28 4 -40 14
-40 8 0 16 -7 20 -15 7 -18 56 -20 56 -2 0 14 -27 40 -54 50 -18 7 -13 27 7
27 14 0 47 -35 47 -50 0 -6 7 -10 16 -10 11 0 14 -8 12 -27 -2 -23 -9 -29 -34
-31 -19 -2 -36 3 -44 12 -7 9 -19 16 -26 16 -8 0 -14 5 -14 11 0 7 -6 17 -14
23 -8 6 -17 26 -21 44 -6 28 -4 32 14 32 18 0 21 -6 21 -40z m-328 -25 c-2
-11 -5 -38 -5 -60 l-2 -40 -67 0 c-39 0 -72 -5 -79 -12 -17 -17 0 -22 81 -25
l65 -3 2 -147 c1 -142 0 -148 -19 -148 -16 0 -18 4 -12 18 4 9 8 69 8 132 l1
115 -49 3 c-27 2 -54 -2 -59 -7 -27 -27 -37 -11 -37 54 0 36 2 65 4 65 2 0 19
-6 37 -14 33 -14 77 -14 98 -1 14 8 14 42 1 50 -5 3 -10 15 -10 26 0 15 6 20
23 17 16 -2 21 -9 19 -23z m85 10 c7 -19 5 -20 -24 -29 -19 -6 -23 -3 -23 12
0 30 37 43 47 17z m-507 -30 c0 -19 -39 -59 -48 -49 -4 3 -1 9 6 11 6 3 12 13
12 22 0 10 3 21 7 24 11 12 23 8 23 -8z m927 -12 c4 -10 11 -21 17 -25 6 -4 8
-10 4 -13 -8 -9 -48 26 -48 42 0 19 20 16 27 -4z m-388 -44 c35 -2 56 2 59 9
2 7 10 12 17 12 10 0 14 -18 14 -70 0 -68 -9 -86 -27 -54 -6 11 -22 14 -68 12
l-59 -3 -2 -113 c-1 -103 0 -113 19 -123 24 -13 10 -33 -15 -23 -15 5 -17 24
-17 131 0 68 5 133 10 144 9 15 22 19 70 19 61 0 80 10 56 29 -9 8 -28 10 -50
5 -56 -10 -86 1 -86 33 0 24 2 25 13 10 8 -11 30 -17 66 -18z m369 -20 c4 -23
-16 -71 -28 -64 -5 3 -10 24 -10 46 0 33 3 40 17 37 10 -2 19 -10 21 -19z
m-1044 -52 c18 -48 21 -97 6 -97 -5 0 -13 18 -16 40 -4 24 -12 40 -20 40 -8 0
-14 -6 -14 -14 0 -7 -7 -19 -15 -26 -13 -11 -15 -9 -15 13 0 13 7 30 15 37 8
7 15 21 15 31 0 35 27 20 44 -24z m1216 24 c0 -10 7 -24 15 -31 16 -13 21 -60
6 -60 -5 0 -14 14 -20 32 -14 39 -28 28 -33 -26 -2 -22 -9 -41 -15 -44 -19 -6
-16 59 3 108 17 41 44 55 44 21z m-1080 -70 c0 -20 -17 -37 -27 -28 -7 8 7 47
18 47 5 0 9 -9 9 -19z m925 -2 c8 -23 1 -34 -14 -24 -13 8 -15 45 -2 45 5 0
13 -9 16 -21z m-976 -28 c18 -11 5 -31 -20 -31 -18 0 -26 20 -12 33 8 9 15 9
32 -2z m1039 -14 c2 -11 -3 -17 -17 -17 -25 0 -38 19 -20 31 19 12 33 6 37
-14z m-1198 -26 c0 -48 16 -61 31 -27 13 28 29 26 29 -5 0 -26 26 -24 33 3 6
21 7 21 26 4 23 -21 35 -66 26 -96 -11 -35 -25 -22 -25 25 0 47 -23 65 -33 25
-3 -11 -10 -20 -16 -20 -6 0 -11 9 -11 20 0 11 -7 20 -15 20 -8 0 -15 -7 -15
-15 0 -26 -29 -16 -45 16 -10 19 -14 41 -10 60 9 42 25 36 25 -10z m1346 5 c6
-25 -19 -86 -36 -86 -20 0 -52 41 -45 58 5 15 8 14 24 -6 21 -28 31 -20 31 25
0 38 17 44 26 9z m-966 -20 c0 -8 -4 -18 -10 -21 -6 -4 -10 -88 -10 -220 0
-180 2 -214 15 -219 36 -14 9 -25 -60 -24 -78 0 -100 9 -65 28 19 10 20 20 20
216 0 173 -2 206 -15 210 -8 4 -15 15 -15 25 0 17 8 19 70 19 54 0 70 -3 70
-14z m185 -11 c0 -11 -8 -21 -17 -23 -11 -2 -18 3 -18 11 0 16 -27 30 -41 21
-12 -7 -12 -451 1 -459 5 -3 18 0 30 7 14 9 25 10 37 2 39 -25 25 -34 -51 -34
-74 0 -101 11 -71 28 14 7 15 37 13 223 -2 118 -7 222 -12 232 -8 17 -3 18 60
15 61 -3 69 -5 69 -23z m307 19 c10 -9 -4 -44 -17 -44 -7 0 -19 10 -27 22 -9
14 -20 19 -31 15 -14 -5 -17 -20 -17 -82 0 -70 -2 -75 -21 -75 -17 0 -19 4
-13 18 10 21 9 87 -1 125 l-7 27 64 0 c36 0 67 -3 70 -6z m228 -64 c0 -53 -2
-60 -20 -60 -10 0 -24 9 -30 19 -14 27 -13 31 8 31 30 0 35 13 11 31 -24 18
-18 39 12 39 17 0 19 -7 19 -60z m130 35 c0 -7 -7 -15 -15 -19 -10 -3 -15 -19
-15 -47 0 -28 -4 -39 -12 -36 -21 7 -15 97 7 113 20 15 35 10 35 -11z m-260 4
c0 -6 -9 -13 -20 -16 -17 -5 -20 -14 -20 -63 0 -42 4 -59 15 -64 8 -3 15 -12
15 -20 0 -8 3 -16 8 -18 12 -5 82 -112 82 -126 0 -20 -24 -8 -29 14 -2 10 -9
23 -17 27 -8 4 -14 15 -14 22 0 8 -5 15 -10 15 -6 0 -15 10 -20 23 -15 33 -33
61 -47 70 -23 14 -16 96 10 123 23 25 47 32 47 13z m55 -30 c4 -6 -2 -13 -14
-16 -25 -6 -30 -58 -6 -67 8 -3 15 -14 15 -25 0 -10 7 -21 15 -25 8 -3 15 -12
15 -20 0 -7 7 -16 15 -20 8 -3 15 -14 15 -25 0 -10 7 -21 15 -25 18 -7 21 -50
3 -44 -7 3 -15 13 -17 23 -2 10 -9 25 -17 33 -8 7 -14 19 -14 27 0 7 -7 15
-15 19 -8 3 -15 12 -15 21 0 8 -4 15 -9 15 -5 0 -13 10 -17 22 -3 12 -13 28
-20 36 -18 18 -18 41 1 48 8 4 15 12 15 20 0 16 26 19 35 3z m235 -8 c0 -26
-16 -35 -24 -15 -10 25 -7 34 9 34 8 0 15 -9 15 -19z m-709 -71 c24 -14 16
-30 -11 -23 -17 5 -20 13 -18 57 1 43 2 45 5 14 3 -25 11 -42 24 -48z m-575
36 c15 -16 19 -46 5 -46 -14 0 -20 -39 -14 -91 9 -77 42 -61 34 16 -3 30 9 69
18 59 5 -5 11 -42 14 -81 l6 -73 -27 0 c-15 0 -37 11 -49 24 -20 21 -23 34
-23 115 0 92 6 106 36 77z m1399 -81 c0 -61 -4 -90 -12 -92 -9 -3 -12 12 -11
56 1 50 -2 64 -18 75 -18 14 -18 15 0 35 33 36 41 20 41 -74z m-1255 29 c0
-18 -24 -44 -40 -44 -25 0 -26 18 -2 36 17 14 42 18 42 8z m1114 -4 c14 -5 26
-16 26 -25 0 -22 -37 -19 -50 4 -18 34 -15 36 24 21z m82 -51 c2 -72 3 -79 20
-79 9 0 14 -6 12 -12 -3 -7 -16 -13 -29 -13 -23 0 -24 3 -27 78 -2 61 0 78 10
75 8 -3 13 -23 14 -49z m-1207 -51 c9 -15 13 -30 9 -33 -11 -11 -57 28 -58 48
0 27 31 17 49 -15z m461 22 c0 -5 -9 -14 -20 -20 -16 -9 -20 -23 -23 -93 l-3
-82 -2 97 c-2 97 1 105 36 107 6 1 12 -3 12 -9z m210 -109 c0 -66 4 -122 9
-126 5 -3 21 0 35 6 20 9 29 9 41 -1 28 -23 16 -29 -60 -29 -41 0 -75 3 -75 7
0 4 6 14 13 23 13 18 15 189 2 222 -5 13 -2 17 14 17 20 0 21 -5 21 -119z
m478 98 c-2 -12 -13 -28 -25 -36 -20 -14 -23 -14 -29 1 -7 19 21 56 43 56 9 0
13 -8 11 -21z m-58 -100 c0 -31 26 -41 36 -14 9 23 24 18 24 -9 0 -14 -10 -30
-23 -39 -20 -13 -24 -13 -40 9 -17 23 -22 42 -19 77 3 29 22 9 22 -24z m-1056
16 c6 -18 -2 -45 -15 -45 -5 0 -9 14 -9 30 0 32 14 40 24 15z m-160 -30 c8 -8
18 -15 23 -15 4 0 19 -12 32 -25 16 -17 21 -31 16 -43 -7 -14 -9 -13 -18 11
-9 22 -17 27 -44 27 -22 0 -36 6 -43 20 -19 35 5 53 34 25z m1146 -12 c0 -19
-3 -24 -10 -17 -6 6 -8 18 -4 27 9 24 14 21 14 -10z m237 11 c3 -8 1 -20 -6
-27 -6 -6 -11 -28 -11 -48 0 -20 -7 -42 -15 -49 -8 -7 -15 -19 -15 -26 0 -8
-6 -14 -14 -14 -8 0 -17 -7 -20 -16 -3 -9 -15 -14 -28 -12 -16 2 -24 12 -29
38 -7 35 5 65 22 54 5 -3 9 -18 9 -35 0 -19 5 -29 15 -29 8 0 15 4 15 9 0 5 6
16 13 23 8 7 17 28 20 46 6 29 4 35 -13 39 -26 7 -25 13 8 40 32 27 41 28 49
7z m-1267 -14 c19 -14 22 -22 14 -30 -17 -17 -54 5 -54 30 0 25 8 25 40 0z
m860 -17 c0 -8 13 -13 29 -13 21 0 32 6 36 21 5 14 10 18 17 11 14 -14 -12
-51 -41 -59 -16 -4 -28 -1 -36 11 -19 25 -37 19 -33 -11 3 -27 6 -28 63 -31
58 -3 61 -2 78 28 10 16 23 30 28 30 19 0 4 -44 -17 -55 -12 -6 -29 -17 -38
-24 -11 -9 -35 -12 -76 -9 -33 2 -61 6 -63 9 -1 2 -1 32 1 65 4 61 4 61 28 50
13 -6 24 -17 24 -23z m322 -45 c-15 -15 -26 -4 -18 18 5 13 9 15 18 6 9 -9 9
-15 0 -24z m-1282 -28 c1 -19 34 -60 49 -60 6 0 11 14 11 30 0 20 5 30 15 30
21 0 27 -19 17 -55 -9 -34 -48 -47 -58 -21 -3 9 -12 16 -19 16 -7 0 -15 8 -19
18 -3 9 -11 24 -17 33 -7 9 -9 25 -5 35 6 16 9 16 16 4 6 -8 10 -22 10 -30z
m173 -9 c20 -22 37 -44 37 -50 0 -18 -21 -13 -27 7 -2 9 -19 24 -36 33 -18 9
-33 23 -35 32 -6 29 22 19 61 -22z m1037 31 c0 -16 -37 -52 -53 -52 -8 0 -17
-9 -20 -20 -5 -21 -27 -28 -27 -9 0 16 72 89 87 89 7 0 13 -4 13 -8z m-10 -85
c0 -22 -53 -87 -71 -87 -29 0 -23 24 10 38 19 9 31 22 35 43 5 28 26 33 26 6z
m-1015 -53 c14 -3 25 -12 25 -20 0 -20 -39 -17 -47 4 -4 9 -16 24 -27 33 -14
11 -17 21 -11 35 6 17 9 15 21 -13 9 -20 23 -35 39 -39z m-90 -34 c3 -11 3
-25 0 -31 -8 -12 70 -89 90 -89 40 0 71 70 43 98 -9 9 -7 12 9 12 12 0 25 -4
28 -10 3 -5 17 -10 31 -10 14 0 27 -7 30 -15 4 -8 12 -15 20 -15 8 0 14 -7 14
-15 0 -8 -7 -15 -15 -15 -8 0 -15 7 -15 15 0 8 -3 15 -7 15 -5 0 -18 3 -30 6
-17 5 -23 2 -23 -10 0 -38 72 -78 89 -49 11 20 31 8 31 -18 0 -19 26 -24 103
-19 31 2 104 -60 93 -79 -11 -16 -46 6 -46 28 0 14 -10 21 -37 26 -32 6 -40 3
-52 -15 l-14 -21 -29 31 c-20 22 -38 32 -61 32 -35 1 -76 25 -77 46 0 25 -29
11 -32 -15 -2 -22 -9 -29 -29 -31 -15 -2 -33 4 -42 12 -9 9 -19 16 -22 16 -12
0 -55 44 -55 57 0 6 -5 13 -11 15 -6 2 -17 18 -25 36 -13 31 -12 32 11 32 15
0 26 -7 30 -20z m1171 -7 c-4 -16 -14 -33 -22 -39 -7 -6 -14 -15 -14 -20 0
-10 -44 -54 -55 -54 -3 0 -13 -7 -22 -16 -9 -8 -27 -14 -42 -12 -20 2 -27 9
-29 31 -3 28 -32 39 -32 12 0 -8 -6 -15 -14 -15 -8 0 -16 -6 -19 -14 -8 -19
-77 -19 -84 1 -3 8 0 20 6 26 10 9 14 8 22 -5 17 -30 89 9 89 48 0 13 -6 15
-27 9 -16 -3 -32 -13 -36 -21 -11 -18 -27 -18 -27 1 0 8 6 15 14 15 8 0 16 7
20 15 3 8 17 15 31 15 14 0 25 5 25 10 0 6 8 10 18 10 15 0 17 -6 14 -35 -3
-25 0 -36 12 -41 9 -3 16 -12 16 -20 0 -26 36 -14 79 26 23 22 40 44 36 50
-11 18 6 50 27 50 17 0 19 -4 14 -27z m-1087 -28 c40 -40 34 -61 -7 -23 -15
14 -35 28 -45 31 -19 7 -14 27 6 27 7 0 27 -16 46 -35z m1024 20 c1 -5 -7 -11
-18 -14 -11 -2 -30 -15 -43 -28 -13 -14 -25 -23 -28 -21 -9 9 8 37 26 43 10 3
21 13 24 21 6 16 36 16 39 -1z m-280 -141 c7 -7 -33 -54 -45 -54 -5 0 -8 6 -8
14 0 22 -16 28 -55 20 -22 -4 -35 -12 -35 -22 0 -14 -27 -41 -42 -42 -18 0 -6
26 25 57 29 29 38 32 93 33 33 0 64 -3 67 -6z m-550 -33 c5 0 5 -6 1 -12 -4
-7 -21 -9 -41 -6 -24 4 -36 2 -40 -9 -3 -7 -12 -14 -19 -14 -20 0 -65 30 -59
40 4 6 125 7 158 1z m732 -1 c6 -9 -39 -40 -59 -40 -7 0 -17 7 -20 16 -4 12
-14 14 -36 9 -33 -7 -60 3 -40 15 16 10 149 10 155 0z m-685 -35 c0 -8 7 -15
15 -15 22 0 18 -38 -6 -50 -23 -13 -64 -10 -64 5 0 6 12 11 28 13 32 4 36 27
6 35 -12 3 -18 10 -14 16 9 16 35 13 35 -4z m77 9 c29 -8 20 -24 -13 -24 -15
0 -24 6 -24 15 0 17 4 18 37 9z m363 -9 c0 -10 -10 -15 -30 -15 -47 0 -35 27
13 29 9 1 17 -6 17 -14z m70 0 c0 -8 -7 -15 -15 -15 -26 0 -16 -28 10 -32 14
-2 27 -7 28 -13 3 -15 -39 -18 -62 -5 -24 12 -28 50 -6 50 8 0 15 7 15 15 0 8
7 15 15 15 8 0 15 -7 15 -15z m-592 -33 c3 -9 -3 -13 -19 -10 -12 1 -24 9 -27
16 -3 9 3 13 19 10 12 -1 24 -9 27 -16z m682 3 c0 -8 -9 -15 -19 -15 -24 0
-36 16 -19 23 24 10 38 7 38 -8z"/>
<path d="M4125 7548 c-3 -7 -4 -112 -3 -233 3 -188 5 -220 18 -220 13 0 15 32
15 229 0 175 -3 230 -12 233 -7 3 -15 -1 -18 -9z"/>
<path d="M3705 7739 c-16 -5 -52 -17 -80 -25 -50 -16 -81 -27 -165 -59 -92
-36 -268 -120 -375 -180 -33 -19 -67 -37 -75 -41 -8 -4 -31 -20 -51 -36 -20
-15 -40 -28 -43 -28 -8 0 -246 -178 -261 -195 -5 -6 -43 -40 -84 -75 -61 -54
-159 -156 -275 -290 -57 -65 -207 -278 -236 -335 -6 -11 -19 -33 -29 -50 -39
-61 -160 -312 -181 -375 -5 -14 -18 -50 -30 -80 -12 -30 -26 -71 -30 -90 -4
-19 -13 -48 -18 -65 -29 -87 -57 -208 -87 -382 -9 -52 -18 -185 -21 -310 -8
-279 7 -476 52 -688 22 -106 69 -274 90 -323 8 -18 14 -41 14 -50 0 -10 4 -22
8 -27 4 -6 18 -37 31 -70 13 -33 36 -87 51 -120 15 -33 31 -67 34 -75 4 -8 21
-42 40 -75 18 -33 44 -80 57 -105 14 -25 47 -78 75 -118 27 -40 54 -82 60 -93
6 -11 20 -30 30 -42 11 -12 32 -40 49 -62 16 -22 34 -45 40 -51 5 -6 35 -40
65 -75 64 -74 170 -182 252 -256 87 -79 376 -293 395 -293 3 0 25 -13 50 -30
40 -27 52 -30 124 -30 75 0 104 12 62 27 -28 9 -95 42 -128 64 -16 10 -39 23
-50 29 -31 15 -55 31 -118 78 -31 23 -59 42 -62 42 -11 0 -96 69 -224 181
-112 98 -288 287 -351 378 -14 20 -35 47 -47 61 -13 14 -23 29 -23 33 0 5 -14
26 -30 47 -17 21 -30 40 -30 43 0 4 -12 23 -26 44 -14 21 -30 47 -35 58 -5 11
-19 36 -30 55 -29 48 -62 113 -94 185 -14 33 -32 73 -40 88 -8 16 -15 35 -15
44 0 8 -7 27 -14 41 -26 47 -93 272 -120 402 -61 297 -72 701 -26 990 17 107
59 291 81 355 6 17 14 44 19 60 5 17 18 55 30 85 12 30 25 66 30 80 19 59 111
252 150 315 10 17 28 48 40 70 89 162 283 408 452 571 86 84 217 197 256 221
15 10 29 20 32 23 3 4 31 24 63 46 85 57 110 72 132 84 11 6 34 19 50 30 17
11 44 26 60 34 29 14 95 50 125 67 8 5 22 12 30 15 8 3 31 12 50 21 61 26 94
40 140 58 25 9 60 23 78 31 18 8 43 14 55 14 35 0 54 19 82 83 26 60 24 63
-30 46z"/>
<path d="M5220 7746 c0 -2 9 -25 19 -50 26 -59 54 -86 90 -86 17 0 32 -4 35
-9 3 -5 18 -12 33 -15 64 -15 384 -163 468 -217 17 -10 37 -22 45 -26 56 -27
283 -194 390 -288 139 -121 288 -283 387 -420 44 -60 139 -201 146 -215 4 -8
16 -28 26 -45 19 -30 141 -272 166 -330 23 -54 43 -109 61 -165 9 -30 22 -71
29 -90 18 -52 35 -118 45 -177 4 -28 13 -66 18 -85 37 -120 58 -462 43 -707
-15 -241 -44 -404 -106 -606 -7 -22 -21 -67 -31 -100 -10 -33 -24 -69 -31 -80
-7 -11 -13 -26 -13 -34 0 -16 -16 -52 -99 -221 -31 -63 -68 -134 -83 -156 -16
-23 -28 -44 -28 -47 0 -17 -205 -296 -281 -382 -60 -69 -193 -201 -259 -259
-30 -26 -66 -57 -80 -69 -14 -12 -42 -33 -62 -47 -21 -14 -38 -28 -38 -32 0
-5 -5 -8 -11 -8 -6 0 -37 -20 -69 -45 -32 -25 -61 -45 -64 -45 -4 0 -25 -12
-49 -27 -62 -40 -71 -45 -202 -111 -109 -54 -190 -91 -237 -106 -23 -7 -23
-38 1 -67 18 -23 20 -23 38 -6 11 9 25 17 31 17 22 0 288 126 297 141 4 5 12
9 20 9 8 0 34 14 58 30 25 17 48 30 52 30 4 0 24 14 45 30 21 17 41 30 44 30
12 0 247 181 309 238 124 113 227 222 320 338 26 32 54 66 60 74 13 15 49 68
121 175 22 33 51 80 65 105 13 25 39 72 57 105 19 33 36 67 40 75 3 8 19 42
34 75 15 33 35 80 45 105 9 25 22 59 29 75 19 45 37 96 45 130 4 17 13 40 19
52 7 12 12 32 12 45 0 12 6 40 14 63 14 40 34 137 56 270 34 204 36 654 4 840
-28 166 -45 250 -56 280 -5 17 -14 48 -18 70 -8 41 -23 86 -46 143 -8 18 -14
41 -14 50 0 10 -7 27 -15 38 -8 10 -15 27 -15 36 0 9 -6 29 -14 45 -8 15 -28
57 -44 93 -44 96 -71 151 -94 190 -11 19 -30 53 -41 75 -12 22 -42 69 -66 105
-25 36 -55 81 -68 100 -90 133 -299 363 -463 510 -73 65 -311 240 -326 240 -3
0 -20 11 -37 24 -39 28 -117 72 -217 121 -41 20 -82 41 -90 46 -8 5 -22 12
-30 15 -8 3 -28 11 -45 18 -104 46 -340 126 -370 126 -3 0 -5 -2 -5 -4z"/>
<path d="M3645 7567 c-11 -6 -45 -20 -75 -30 -30 -10 -70 -24 -87 -32 -18 -8
-48 -21 -65 -29 -59 -25 -237 -115 -278 -141 -22 -14 -42 -25 -45 -25 -5 0
-158 -102 -165 -110 -3 -4 -27 -22 -55 -40 -115 -79 -291 -243 -424 -395 -87
-100 -181 -220 -181 -231 0 -3 -12 -23 -27 -43 -31 -40 -48 -67 -63 -96 -6
-11 -19 -33 -30 -50 -38 -60 -155 -302 -183 -381 -76 -210 -147 -489 -147
-574 0 -19 -7 -71 -15 -115 -17 -94 -20 -416 -5 -515 6 -36 15 -101 19 -145
11 -91 17 -119 66 -315 25 -101 44 -164 70 -225 7 -16 20 -50 30 -75 31 -82
100 -227 139 -295 12 -22 31 -56 42 -75 43 -78 178 -275 216 -314 7 -8 31 -35
53 -62 44 -55 216 -228 285 -289 150 -131 343 -264 505 -346 33 -16 80 -41
104 -55 53 -29 139 -32 234 -8 34 8 89 22 122 31 72 18 131 37 203 66 40 16
51 25 46 36 -3 9 -10 30 -14 46 -14 57 -75 160 -95 163 -19 3 -36 9 -135 47
-62 24 -168 73 -210 97 -19 10 -48 26 -65 34 -16 8 -43 23 -60 34 -16 11 -37
23 -45 27 -8 4 -19 11 -25 15 -5 5 -59 45 -120 90 -111 81 -328 290 -398 383
-87 114 -149 203 -167 240 -6 11 -19 34 -29 50 -28 43 -121 233 -121 246 0 6
-7 23 -14 37 -15 26 -59 162 -89 272 -27 99 -37 162 -53 344 -14 161 -14 196
0 365 16 188 26 251 53 351 8 30 22 80 30 110 9 30 22 67 29 82 8 14 14 33 14
41 0 47 168 374 242 468 15 20 28 41 28 47 0 6 3 12 8 14 4 2 19 21 35 43 15
22 59 74 97 115 38 41 70 78 70 82 0 4 57 57 126 117 107 95 204 166 348 256
52 32 199 105 211 105 7 0 18 7 25 15 7 8 23 15 36 15 13 0 33 9 44 20 18 18
19 23 6 52 -17 41 -36 161 -36 230 0 29 5 89 12 135 13 90 7 110 -27 90z
m-471 -432 c43 -18 86 -81 86 -127 0 -37 -39 -101 -72 -119 -49 -26 -80 -29
-122 -10 -49 22 -70 44 -85 93 -21 65 13 133 82 163 42 18 66 18 111 0z m-264
-275 c83 -100 96 -130 56 -130 -14 0 -29 6 -33 14 -4 8 -24 32 -44 53 -96 103
-101 111 -89 133 6 11 16 20 23 19 7 0 46 -40 87 -89z m-186 -29 c3 -4 0 -23
-7 -40 -12 -33 -12 -33 56 -97 50 -48 67 -71 65 -87 -5 -34 -35 -22 -101 41
-74 72 -87 79 -102 58 -16 -21 -31 -20 -44 2 -8 14 1 28 47 75 54 55 75 67 86
48z m-105 -270 c91 -72 67 -213 -42 -242 -85 -23 -149 12 -177 97 -10 30 -9
43 5 80 35 92 140 123 214 65z m-294 -301 c3 -5 -12 -27 -34 -48 -42 -40 -49
-64 -30 -105 13 -29 58 -57 91 -57 50 0 98 91 64 119 -12 10 -18 9 -33 -8 -17
-20 -43 -27 -56 -15 -5 6 40 104 49 104 12 0 63 -27 82 -44 28 -24 30 -94 5
-133 -24 -36 -91 -83 -120 -83 -26 0 -82 28 -108 53 -54 54 -33 192 33 219 25
10 50 9 57 -2z m-179 -311 c3 -6 -2 -29 -12 -51 -13 -29 -15 -44 -7 -56 18
-30 46 -20 56 18 10 41 24 60 43 60 16 0 20 -65 4 -75 -18 -11 -11 -53 10 -60
28 -9 48 10 60 56 11 39 23 46 49 30 13 -8 13 -14 -1 -43 -9 -18 -23 -50 -32
-72 -15 -35 -19 -38 -49 -33 -18 2 -57 14 -87 27 -30 12 -70 26 -88 32 -32 9
-34 12 -29 46 5 36 24 95 40 120 10 15 33 16 43 1z m-31 -308 c112 -28 155
-43 155 -53 0 -18 -32 -48 -50 -48 -10 0 -23 -7 -30 -15 -7 -8 -20 -15 -30
-15 -9 0 -30 -10 -44 -21 -34 -26 -21 -39 40 -39 48 0 80 -20 71 -44 -8 -20
-52 -21 -126 -2 -31 8 -72 18 -93 21 -20 3 -39 12 -42 21 -9 24 11 53 42 60
15 4 34 12 42 19 8 7 26 15 40 17 38 5 37 34 -1 47 -18 6 -43 11 -56 11 -26 0
-39 21 -29 46 7 17 20 17 111 -5z m85 -527 c0 -8 -11 -20 -25 -26 -14 -6 -26
-16 -26 -22 -9 -73 -8 -85 16 -100 51 -34 17 -71 -39 -44 -17 9 -69 32 -116
51 -64 27 -86 41 -88 56 -2 15 4 24 25 32 97 39 132 52 162 59 18 5 38 13 44
19 13 13 47 -4 47 -25z m4 -316 c3 -13 6 -47 6 -75 0 -59 9 -53 -111 -72 -36
-6 -87 -11 -113 -11 -46 0 -47 1 -44 28 3 27 4 27 102 35 55 4 102 10 105 13
3 3 4 27 3 54 -2 47 0 50 22 50 16 0 26 -7 30 -22z m-11 -273 c102 -42 102
-208 0 -250 -65 -27 -122 -15 -171 38 -31 33 -35 136 -6 169 50 56 111 71 177
43z m142 -335 c12 -19 -6 -50 -33 -56 -42 -10 -52 -28 -37 -72 17 -49 36 -60
69 -39 14 9 37 17 51 17 20 0 25 -5 25 -24 0 -17 -7 -27 -22 -31 -13 -4 -38
-13 -55 -21 -18 -8 -47 -21 -65 -28 -18 -8 -46 -20 -61 -27 -24 -11 -30 -10
-45 5 -16 16 -16 18 8 37 14 10 35 22 48 25 27 8 28 22 1 74 -22 42 -29 46
-45 30 -5 -5 -25 -11 -44 -12 -29 -3 -35 0 -35 17 0 19 12 27 85 58 19 8 55
24 80 36 50 23 66 26 75 11z m148 -314 c14 -13 31 -42 38 -65 31 -105 -66
-203 -168 -171 -21 7 -46 19 -55 27 -26 23 -58 91 -51 108 10 27 46 13 55 -20
19 -74 106 -86 160 -21 27 32 22 68 -13 104 -50 52 -19 87 34 38z m181 -271
c49 -37 74 -119 41 -131 -23 -9 -45 15 -45 47 0 18 -7 32 -21 39 -40 22 -48 7
-42 -72 7 -88 -6 -108 -65 -108 -48 0 -92 48 -92 99 0 34 39 27 51 -8 6 -16
18 -32 26 -36 28 -10 36 10 25 62 -11 50 -7 87 11 111 13 17 88 15 111 -3z"/>
<path d="M3059 7071 c-33 -33 -36 -58 -14 -101 42 -82 155 -59 155 31 0 27 -8
43 -33 67 -41 40 -70 40 -108 3z"/>
<path d="M2466 6508 c-35 -49 -12 -111 50 -137 27 -11 37 -10 62 3 16 8 35 29
42 45 11 26 9 34 -9 65 -25 39 -38 46 -91 46 -29 0 -43 -6 -54 -22z"/>
<path d="M2055 5046 c-23 -16 -13 -46 15 -46 15 0 20 7 20 24 0 31 -12 39 -35
22z"/>
<path d="M2093 4473 c-37 -19 -57 -59 -48 -96 14 -53 65 -73 122 -47 46 20 58
45 49 95 -5 25 -15 37 -40 49 -41 19 -42 19 -83 -1z"/>
<path d="M5304 7572 c-8 -5 -9 -25 -1 -72 21 -129 8 -358 -23 -395 -16 -20 4
-53 38 -61 15 -4 38 -12 52 -19 14 -7 57 -28 95 -46 39 -19 88 -45 110 -59 72
-44 80 -49 95 -56 8 -4 31 -20 51 -36 20 -15 42 -28 48 -28 6 0 11 -4 11 -8 0
-5 8 -13 19 -18 60 -29 334 -295 419 -406 28 -37 56 -73 62 -80 51 -58 184
-292 236 -416 7 -18 20 -47 27 -65 20 -45 37 -97 46 -132 4 -17 13 -40 19 -52
7 -12 12 -32 12 -44 0 -12 6 -45 14 -73 36 -126 46 -209 52 -396 10 -327 -15
-526 -92 -760 -14 -41 -29 -90 -34 -109 -5 -18 -13 -38 -19 -44 -6 -6 -11 -17
-11 -24 0 -30 -110 -240 -203 -388 -54 -87 -181 -240 -282 -341 -158 -159
-334 -292 -500 -378 -27 -15 -57 -30 -65 -35 -30 -18 -146 -71 -155 -71 -6 0
-25 -9 -43 -20 -24 -15 -31 -24 -25 -33 6 -7 20 -40 33 -75 12 -34 27 -65 31
-68 5 -3 9 -14 9 -24 0 -10 6 -31 14 -47 15 -28 69 -163 80 -196 9 -28 17 -26
158 37 31 15 67 31 80 36 13 5 31 14 41 20 39 23 53 30 82 45 100 49 265 160
410 276 76 60 255 234 324 313 42 48 203 261 228 301 12 19 103 171 123 205
21 36 100 206 125 270 9 25 21 54 26 65 5 11 17 47 27 80 18 56 28 89 66 226
9 31 16 64 16 75 0 10 7 48 15 84 44 195 56 556 25 775 -20 149 -42 270 -56
317 -8 26 -14 56 -14 67 0 11 -6 35 -14 53 -7 18 -21 60 -31 93 -9 33 -23 73
-31 88 -8 16 -14 35 -14 42 0 7 -6 26 -14 42 -7 15 -21 46 -31 68 -9 22 -21
47 -26 55 -5 8 -12 22 -15 30 -12 28 -45 95 -68 135 -84 150 -100 175 -108
175 -5 0 -8 4 -8 10 0 5 -27 47 -60 92 -201 278 -411 478 -727 695 -35 23 -65
43 -68 43 -3 0 -23 11 -45 25 -41 26 -218 116 -280 142 -19 9 -48 22 -63 29
-16 8 -37 14 -47 14 -10 0 -21 4 -25 9 -3 5 -20 13 -37 17 -18 3 -42 13 -53
20 -11 7 -25 10 -31 6z m605 -428 c78 -66 82 -72 79 -115 -3 -41 -8 -46 -78
-79 -10 -5 -15 -23 -15 -58 0 -60 -8 -71 -35 -47 -16 14 -20 31 -20 76 0 32
-4 60 -9 63 -5 3 -19 -10 -32 -29 -25 -36 -56 -46 -65 -20 -4 8 2 27 12 41 11
15 24 34 29 43 25 41 101 140 108 141 4 0 16 -7 26 -16z m245 -189 c19 -15 19
-16 -11 -48 -81 -85 -93 -102 -93 -133 0 -22 7 -34 24 -43 32 -17 52 -6 117
69 55 64 72 72 88 41 9 -16 0 -30 -58 -92 -67 -72 -68 -72 -121 -73 -48 -1
-55 2 -81 34 -48 57 -41 91 37 183 36 42 69 77 73 77 3 0 15 -7 25 -15z m286
-301 c0 -13 -5 -26 -11 -29 -5 -4 -15 -17 -20 -28 -5 -12 -18 -35 -28 -52 -11
-16 -20 -33 -20 -37 -1 -13 48 -9 77 6 15 7 45 16 68 19 37 6 43 4 62 -23 l22
-30 -62 -47 c-34 -27 -79 -63 -99 -81 -32 -28 -41 -32 -58 -22 -33 17 -25 32
39 79 66 48 69 73 5 47 -21 -9 -47 -16 -59 -16 -12 0 -27 -5 -34 -12 -9 -9
-16 -7 -31 6 -19 17 -19 18 -1 49 45 76 60 109 55 117 -3 5 -31 -11 -61 -36
-59 -47 -77 -51 -82 -17 -2 13 9 29 35 48 21 15 43 33 48 39 6 7 32 29 59 49
l49 37 24 -22 c13 -12 23 -32 23 -44z m323 -491 c5 -3 22 -23 38 -45 34 -47
41 -124 13 -135 -23 -9 -38 13 -39 58 -2 79 -88 108 -146 50 -33 -33 -36 -58
-13 -102 12 -24 21 -30 42 -27 25 3 27 6 24 41 -6 67 45 38 62 -36 5 -23 2
-30 -26 -47 -49 -30 -81 -26 -122 16 -75 77 -49 203 48 236 21 7 104 1 119 -9z
m70 -380 c149 -9 152 -28 25 -124 -46 -35 -89 -69 -96 -76 -7 -7 -22 -13 -33
-13 -23 0 -26 41 -4 60 34 28 -1 120 -45 120 -23 0 -34 16 -26 37 5 12 15 14
44 9 20 -3 81 -9 135 -13z m182 -334 c6 -53 4 -65 -13 -88 -16 -21 -27 -26
-63 -25 -32 1 -47 -4 -57 -17 -16 -24 -60 -24 -88 -1 -26 21 -57 100 -52 133
3 21 10 25 58 31 30 4 69 11 85 16 17 6 51 11 77 11 l46 1 7 -61z m23 -251 c6
-7 12 -47 14 -88 3 -71 2 -75 -19 -78 -21 -3 -23 1 -23 45 0 56 -10 76 -36 71
-16 -3 -20 -14 -22 -61 -3 -53 -5 -58 -25 -55 -12 2 -23 10 -24 18 -10 81 -14
90 -37 90 -28 0 -36 -16 -36 -75 0 -46 -11 -63 -28 -42 -10 11 -29 156 -21
158 2 1 56 7 119 14 63 7 118 13 121 14 4 0 11 -5 17 -11z m11 -307 c5 -8 7
-21 4 -29 -5 -11 -27 -13 -112 -10 l-106 3 -3 -47 c-3 -49 -23 -68 -47 -48
-12 10 -12 98 1 138 6 20 251 13 263 -7z m-194 -236 c33 -8 79 -15 102 -15 24
0 48 -7 57 -16 39 -39 6 -51 -93 -35 -121 19 -113 21 -125 -26 -13 -48 -29
-69 -46 -58 -25 16 6 166 34 165 6 -1 38 -7 71 -15z m-92 -237 c12 -6 40 -15
62 -19 97 -19 140 -36 143 -57 4 -29 -36 -39 -76 -18 -17 9 -39 16 -49 16 -10
0 -44 8 -75 17 -46 14 -58 22 -58 39 0 35 16 42 53 22z m32 -233 c86 -81 98
-97 89 -112 -10 -16 -28 -18 -150 -18 -126 0 -139 2 -142 18 -3 13 7 22 37 34
34 13 43 22 52 56 8 32 7 42 -5 56 -9 10 -16 22 -16 27 0 11 21 34 30 34 3 -1
50 -43 105 -95z m-170 -250 c33 -19 74 -41 90 -49 56 -26 69 -41 57 -62 -8
-15 -29 -21 -94 -29 -72 -9 -83 -13 -83 -30 0 -11 9 -21 21 -25 11 -3 32 -14
47 -25 20 -15 25 -26 21 -42 -7 -24 -28 -31 -39 -13 -3 5 -30 22 -58 36 -69
34 -87 45 -122 72 l-30 22 22 19 c15 13 46 20 102 25 45 4 81 11 81 15 0 11
-29 34 -72 56 -35 18 -48 42 -31 58 11 12 27 7 88 -28z m-215 -246 c0 -6 20
-45 45 -86 25 -40 45 -77 45 -82 0 -5 7 -14 16 -21 8 -8 14 -25 12 -39 -3 -25
-6 -26 -52 -23 -27 2 -61 9 -75 16 -14 7 -39 16 -56 19 -16 3 -47 13 -68 21
-33 15 -36 18 -25 36 9 14 24 20 49 20 28 0 40 6 57 30 25 33 27 43 10 69 -9
14 -8 22 3 34 16 19 39 22 39 6z"/>
<path d="M5874 7066 c-11 -29 0 -51 26 -51 21 0 25 5 25 30 0 24 -5 31 -23 33
-13 2 -24 -3 -28 -12z"/>
<path d="M6776 5723 c-4 -9 -2 -21 3 -26 15 -15 46 -3 49 21 3 18 -1 22 -21
22 -14 0 -28 -7 -31 -17z"/>
<path d="M6916 5442 c-12 -19 7 -52 29 -52 24 0 42 30 30 50 -7 12 -52 13 -59
2z"/>
<path d="M6805 5419 c-4 -5 -4 -21 -1 -35 5 -17 13 -24 31 -24 22 0 25 4 25
35 0 30 -3 35 -24 35 -14 0 -28 -5 -31 -11z"/>
<path d="M6732 4151 c-21 -13 -10 -46 17 -49 35 -5 46 12 25 37 -21 23 -23 24
-42 12z"/>
<path d="M6384 3549 c-9 -16 31 -53 50 -46 13 5 14 11 4 32 -12 26 -41 34 -54
14z"/>
<path d="M3690 7011 c-14 -5 -61 -25 -105 -46 -44 -20 -89 -41 -100 -46 -11
-5 -33 -18 -50 -29 -16 -11 -39 -24 -50 -30 -54 -29 -221 -147 -264 -186 -14
-13 -29 -24 -33 -24 -5 0 -8 -7 -8 -15 0 -12 15 -15 71 -15 68 0 73 2 127 43
61 47 229 149 302 184 117 55 158 73 168 73 6 0 13 4 16 8 6 10 -33 92 -43 91
-3 0 -17 -4 -31 -8z"/>
<path d="M5231 6979 c-21 -40 -21 -59 2 -59 6 0 39 -13 72 -29 33 -16 80 -39
105 -50 25 -12 52 -26 60 -31 8 -5 51 -31 95 -57 44 -25 106 -66 137 -90 54
-41 59 -43 127 -43 50 0 71 4 71 13 -1 11 -222 182 -259 200 -9 4 -29 16 -46
27 -46 30 -287 147 -317 154 -23 5 -29 1 -47 -35z"/>
<path d="M3740 6875 c-14 -7 -78 -39 -144 -71 -134 -65 -288 -162 -280 -175 7
-11 731 -12 738 -1 3 5 -26 31 -64 60 -37 28 -96 84 -131 124 -34 40 -70 74
-78 75 -9 1 -27 -4 -41 -12z"/>
<path d="M5149 6848 c-63 -81 -191 -198 -218 -198 -6 0 -11 -7 -11 -15 0 -13
48 -15 369 -15 212 0 372 4 375 9 5 8 -62 57 -114 84 -8 4 -28 16 -45 27 -16
10 -77 42 -135 70 -58 28 -118 58 -133 66 -43 21 -52 18 -88 -28z"/>
<path d="M3074 6573 c-18 -19 -20 -2089 -2 -2141 25 -71 111 -233 176 -330 23
-35 42 -65 42 -68 0 -5 119 -165 130 -174 3 -3 25 -30 50 -60 103 -128 430
-436 525 -495 17 -10 35 -24 40 -30 10 -10 25 -21 166 -116 88 -59 101 -68
119 -76 8 -4 48 -26 88 -50 40 -24 79 -43 87 -43 24 0 93 47 99 68 6 18 74 52
106 52 8 0 38 15 65 33 61 39 258 178 265 187 3 4 28 24 55 46 147 114 402
374 514 523 50 66 91 124 91 130 0 5 3 11 8 13 6 3 35 45 89 133 7 11 24 43
38 70 14 28 30 57 35 65 6 8 23 45 40 82 l30 66 0 1049 c0 576 -4 1054 -8
1061 -12 18 -2830 23 -2848 5z m122 -43 l44 -29 36 24 c42 29 61 31 99 11 30
-16 64 -58 49 -63 -66 -22 -93 -73 -56 -106 17 -16 107 -17 1133 -15 l1113 3
12 23 c16 33 7 60 -28 78 -40 21 -34 53 13 78 40 22 78 17 107 -14 19 -20 19
-20 73 10 69 38 96 39 105 3 5 -20 -1 -42 -23 -85 -23 -43 -27 -60 -18 -66 40
-24 46 -97 10 -136 -31 -34 -39 -33 -65 9 -17 27 -28 35 -50 35 -64 0 -60 58
-60 -924 l0 -893 -24 -44 c-14 -24 -37 -66 -51 -93 -33 -60 -139 -222 -193
-293 -126 -169 -353 -393 -532 -528 -36 -27 -68 -53 -71 -58 -4 -5 -16 -14
-27 -20 -11 -7 -56 -36 -99 -64 -43 -29 -84 -53 -90 -53 -7 0 -13 -7 -13 -15
0 -18 41 -20 58 -3 10 10 17 7 35 -10 l22 -22 -25 -48 c-23 -43 -29 -48 -71
-55 -45 -8 -47 -10 -53 -49 -7 -43 -42 -98 -63 -98 -19 0 -63 76 -63 110 0 16
-3 31 -7 31 -5 1 -23 3 -42 5 -19 2 -43 11 -53 20 -24 22 -33 79 -18 112 11
25 13 25 24 9 13 -17 66 -24 66 -8 0 5 -30 28 -67 51 -115 70 -209 139 -352
258 -83 69 -296 287 -372 382 -75 93 -169 225 -169 237 0 4 -6 14 -14 22 -13
15 -45 72 -110 195 l-26 49 0 886 c0 677 -3 890 -12 899 -7 7 -24 12 -39 12
-20 0 -32 -9 -48 -35 -23 -40 -30 -42 -62 -17 -31 26 -34 116 -5 138 19 14 19
14 -1 56 -31 63 -35 85 -23 108 15 28 45 25 96 -10z"/>
<path d="M3140 6486 c0 -7 18 -30 40 -50 22 -20 40 -39 40 -43 0 -5 -18 -18
-40 -31 -30 -17 -40 -29 -40 -47 0 -16 6 -25 15 -25 8 0 15 5 15 10 0 6 16 18
35 27 32 15 37 15 74 -2 22 -9 42 -24 46 -33 3 -8 5 -413 5 -899 l0 -885 46
-86 c26 -48 52 -96 58 -107 81 -147 254 -366 406 -515 192 -188 266 -248 513
-413 68 -46 107 -78 107 -90 0 -24 -59 -59 -87 -52 -25 6 -31 -13 -11 -33 17
-17 48 -15 69 4 27 24 39 8 39 -50 0 -35 5 -58 15 -66 24 -20 35 -2 35 60 0
32 4 61 9 64 5 4 22 -1 38 -11 35 -20 63 -12 63 18 0 16 -5 20 -20 16 -23 -6
-84 31 -87 53 -2 9 22 30 59 53 95 57 94 56 223 151 133 99 132 98 263 220
128 117 248 248 333 361 46 61 130 188 142 215 4 8 16 29 27 45 10 17 33 58
49 93 l31 62 0 880 c0 626 3 886 11 904 24 52 104 70 143 31 21 -22 36 -18 36
8 0 17 -10 28 -35 40 -19 9 -35 21 -35 27 0 6 16 24 35 41 36 32 47 69 20 69
-9 0 -33 -19 -54 -42 l-39 -41 -23 41 c-17 29 -31 42 -46 42 -27 0 -38 -16
-19 -27 22 -12 45 -62 39 -84 -3 -11 -18 -33 -33 -49 l-28 -30 -1129 0 c-1109
0 -1130 0 -1150 20 -12 10 -24 29 -28 41 -9 28 2 84 20 99 22 19 18 30 -11 30
-19 0 -28 -7 -37 -30 -17 -44 -36 -45 -77 -5 -37 36 -70 46 -70 21z m2435
-248 c3 -13 4 -408 3 -878 l-3 -855 -27 -45 c-15 -25 -31 -52 -35 -60 -19 -43
-104 -175 -157 -245 -168 -224 -349 -404 -607 -602 -37 -29 -71 -53 -75 -53
-3 0 -23 -13 -44 -30 -21 -16 -41 -30 -44 -30 -3 0 -25 -13 -48 -30 -22 -17
-47 -30 -55 -30 -7 0 -32 12 -56 27 -23 15 -50 32 -59 38 -244 148 -548 425
-744 680 -38 49 -124 175 -124 181 0 2 -10 21 -23 42 -13 20 -40 67 -60 104
l-37 67 0 864 c0 475 3 867 7 870 3 4 496 7 1094 7 l1089 0 5 -22z"/>
<path d="M3432 6197 c-8 -10 -10 -248 -8 -840 l4 -826 23 -48 c32 -67 108
-193 133 -221 14 -16 22 -19 25 -10 4 7 5 97 3 200 l-3 187 -47 17 c-92 34
-107 71 -73 184 18 58 32 81 72 121 l49 50 0 179 c0 98 3 185 6 194 4 11 19
16 50 16 35 0 47 5 60 25 12 19 25 25 50 25 22 0 37 6 40 15 4 11 21 15 55 15
40 0 49 3 49 18 1 52 77 215 138 297 43 58 150 165 164 165 4 0 13 6 20 13 61
56 219 119 348 138 80 12 263 2 309 -17 18 -8 41 -14 51 -14 24 0 184 -84 234
-122 102 -80 163 -154 229 -276 80 -149 104 -324 72 -512 -18 -103 -41 -168
-95 -258 -19 -31 -20 -52 -21 -330 0 -163 0 -304 0 -312 2 -16 34 18 52 55 5
11 18 34 29 50 10 17 35 62 55 100 l36 70 -3 830 -3 830 -1046 3 c-860 2
-1048 0 -1057 -11z"/>
<path d="M4550 6064 c-25 -7 -58 -16 -74 -19 l-29 -6 25 -25 c24 -25 25 -25
61 -8 44 21 55 14 30 -20 -13 -18 -27 -25 -50 -26 -18 0 -33 -5 -33 -10 0 -6
-11 -15 -25 -20 -14 -5 -25 -14 -25 -20 0 -5 -5 -10 -10 -10 -16 0 -111 -103
-102 -111 4 -4 16 -9 26 -11 11 -1 21 -9 24 -15 5 -16 -44 -18 -53 -3 -13 20
-32 9 -51 -30 -10 -22 -23 -40 -27 -40 -4 0 -13 -13 -18 -30 -6 -16 -15 -30
-19 -30 -4 0 -11 -17 -15 -37 -4 -21 -13 -50 -22 -66 l-15 -29 -19 31 c-24 39
-24 39 4 43 14 2 23 11 25 26 2 13 10 26 18 29 8 3 14 16 14 29 0 14 7 27 15
30 8 4 15 11 15 18 0 6 9 20 21 29 13 12 18 24 14 35 -12 32 -10 37 23 40 17
2 32 6 32 10 0 10 67 82 77 82 4 1 19 14 33 30 13 17 30 30 37 30 23 0 14 26
-12 38 -37 17 -48 15 -112 -19 -88 -48 -162 -107 -163 -131 0 -4 12 -8 27 -10
35 -4 43 -28 9 -28 -13 0 -28 5 -31 10 -14 23 -42 6 -81 -48 -54 -74 -79 -123
-75 -145 1 -11 -6 -25 -17 -33 -21 -14 -34 -57 -34 -111 l1 -33 -65 0 c-60 0
-65 -2 -74 -26 -8 -21 -13 -24 -25 -14 -7 6 -24 10 -37 8 -18 -2 -23 -9 -23
-33 0 -29 -2 -30 -45 -30 l-45 0 -3 -174 c-2 -153 0 -176 15 -193 9 -10 27
-18 38 -16 12 1 30 -5 39 -15 10 -9 29 -20 44 -23 15 -4 41 -17 59 -30 17 -13
34 -24 38 -24 3 0 61 -27 128 -59 339 -164 381 -181 437 -181 22 0 40 -4 40
-9 0 -10 91 -51 114 -51 8 0 30 -6 48 -14 42 -17 94 -35 133 -46 17 -5 46 -14
65 -21 19 -6 51 -17 70 -24 137 -48 194 -57 218 -33 9 9 12 8 12 -5 0 -9 -11
-24 -25 -33 -20 -13 -23 -20 -15 -34 6 -10 10 -28 10 -39 0 -12 10 -23 28 -29
24 -9 25 -11 5 -11 -24 -1 -61 -46 -49 -59 4 -4 56 -7 114 -7 l107 0 0 565 0
565 -45 0 c-43 0 -45 1 -45 30 0 29 -2 30 -42 29 -32 0 -43 3 -46 18 -4 15
-16 18 -69 18 -67 0 -118 16 -118 38 0 19 28 26 46 11 8 -7 43 -14 76 -16 37
-1 68 -9 78 -18 9 -8 30 -15 47 -15 22 0 36 -7 47 -25 19 -29 33 -31 55 -11
22 20 38 8 54 -39 10 -29 21 -41 42 -47 16 -4 32 -5 37 -2 13 8 8 136 -7 179
-8 22 -15 48 -15 58 0 9 -14 26 -31 36 -27 17 -29 20 -13 29 18 10 16 18 -16
67 -11 17 -25 40 -31 53 -7 12 -15 22 -19 22 -4 0 -10 9 -13 20 -7 26 -27 26
-27 -1 0 -12 -5 -19 -12 -16 -7 2 -12 16 -11 30 1 18 -2 24 -12 21 -7 -3 -16
3 -20 15 -3 12 -29 44 -56 72 -38 40 -52 48 -66 41 -13 -8 -21 -3 -38 22 -25
37 -55 47 -55 17 0 -11 -6 -24 -14 -28 -8 -4 -16 -21 -18 -37 -1 -16 -9 -31
-15 -34 -18 -5 -16 43 2 62 8 8 15 28 15 45 0 36 -24 47 -66 31 -25 -10 -31
-8 -47 11 -16 20 -23 21 -93 16 -57 -5 -82 -3 -104 8 -34 18 -50 18 -110 -1z
m98 -26 c-7 -20 -58 -23 -58 -4 0 11 10 16 31 16 20 0 29 -4 27 -12z m200 -30
c-3 -7 -12 -14 -22 -16 -9 -2 -31 -17 -48 -33 -18 -16 -36 -29 -40 -29 -17 0
-7 -29 12 -35 31 -10 24 -28 -9 -22 -31 7 -71 -1 -71 -14 0 -4 -13 -23 -30
-41 -16 -18 -30 -38 -30 -45 0 -6 -6 -16 -13 -20 -8 -4 -17 -17 -21 -27 -5
-15 -9 -17 -19 -7 -9 10 -9 15 4 24 8 7 19 19 23 27 18 38 35 61 59 84 15 14
27 29 27 33 0 12 -41 37 -69 43 -13 3 -26 11 -29 18 -5 16 33 16 50 -1 28 -28
107 -30 108 -3 1 16 81 75 103 75 11 1 17 -4 15 -11z m270 -122 c2 -21 0 -46
-3 -55 -6 -14 -8 -14 -15 4 -5 11 -9 37 -9 58 -1 51 23 45 27 -7z m-182 -36
c-5 -26 -2 -32 19 -40 38 -14 32 -33 -9 -26 -28 5 -34 3 -39 -14 -3 -11 -11
-20 -17 -20 -8 0 -10 9 -6 25 5 18 1 27 -14 35 -29 15 -25 30 9 30 20 0 30 6
34 20 9 34 30 24 23 -10z m-98 2 c3 -10 -4 -13 -24 -10 -15 2 -29 9 -32 16 -3
10 4 13 24 10 15 -2 29 -9 32 -16z m210 -90 c3 -9 -3 -13 -19 -10 -12 1 -24 9
-27 16 -3 9 3 13 19 10 12 -1 24 -9 27 -16z m82 -22 c6 -11 19 -20 30 -20 10
0 25 -6 33 -14 16 -16 57 -24 73 -13 6 3 9 18 6 33 -4 20 -1 25 9 22 8 -2 15
-18 17 -34 2 -16 14 -40 27 -54 17 -18 22 -29 15 -40 -5 -8 -10 -39 -10 -68 0
-66 -16 -60 -25 11 -9 77 -22 97 -62 97 -21 0 -36 6 -39 15 -4 10 -20 15 -50
15 -24 0 -44 5 -44 10 0 6 -11 16 -25 22 -31 14 -32 25 -2 31 12 2 25 5 29 6
4 0 12 -8 18 -19z m-692 -2 c7 -7 40 -19 74 -28 44 -10 64 -20 66 -32 3 -14
-3 -18 -23 -18 -20 0 -28 -7 -36 -30 -6 -16 -15 -30 -19 -30 -5 0 -10 -10 -12
-22 -2 -12 -9 -23 -15 -26 -19 -6 -16 37 2 44 8 4 15 16 15 29 0 12 7 28 15
35 18 15 11 30 -15 30 -10 0 -25 7 -34 15 -8 8 -21 15 -29 15 -23 0 -47 11
-47 21 0 13 44 11 58 -3z m442 -22 c0 -24 -16 -43 -27 -32 -8 8 6 56 17 56 6
0 10 -11 10 -24z m240 -106 c0 -64 -7 -93 -21 -84 -10 6 -12 97 -3 131 11 40
24 14 24 -47z m-272 33 c-4 -34 -28 -43 -28 -10 0 25 7 37 22 37 5 0 8 -12 6
-27z m-200 -1 c3 -9 -3 -13 -19 -10 -12 1 -24 9 -27 16 -3 9 3 13 19 10 12 -1
24 -9 27 -16z m66 -18 c9 -3 16 -10 16 -16 0 -14 -53 -5 -58 10 -4 13 16 16
42 6z m-616 -42 c3 -10 -4 -13 -24 -10 -15 2 -29 9 -32 16 -3 10 4 13 24 10
15 -2 29 -9 32 -16z m726 3 c3 -8 12 -15 19 -15 8 0 20 -6 27 -14 6 -8 23 -16
37 -18 15 -2 28 -9 31 -15 5 -18 -33 -16 -52 2 -8 8 -32 15 -55 15 -29 0 -41
4 -41 14 0 8 -10 16 -22 18 -12 2 -23 9 -26 16 -6 19 74 16 82 -3z m-584 -60
c14 -8 39 -14 57 -15 17 0 38 -3 47 -6 32 -12 3 -24 -56 -24 -63 0 -98 17 -98
47 0 17 18 16 50 -2z m220 0 c0 -8 -5 -25 -11 -39 -9 -20 -9 -28 4 -40 22 -23
50 -20 81 9 28 26 56 33 56 14 0 -6 -9 -13 -20 -16 -11 -3 -20 -9 -20 -13 0
-5 -9 -12 -20 -15 -11 -3 -20 -13 -20 -21 0 -8 -2 -14 -4 -14 -2 0 -11 -3 -20
-6 -9 -4 -16 -1 -16 6 0 15 -40 54 -64 63 -22 9 -20 24 4 30 11 3 20 14 20 24
0 11 3 23 7 26 11 12 23 8 23 -8z m334 -30 c4 -16 11 -22 21 -19 23 9 126 -6
120 -17 -10 -15 -100 -10 -141 8 -26 11 -61 16 -106 14 -42 -1 -68 2 -68 8 0
16 46 24 90 17 22 -3 41 -2 45 4 11 18 33 10 39 -15z m-631 -17 c21 -11 21
-11 2 -19 -29 -11 -145 -11 -145 1 0 5 17 12 38 15 20 4 42 8 47 10 20 7 37 5
58 -7z m-423 -448 c0 -11 -4 -20 -10 -20 -5 0 -10 9 -10 20 0 11 5 20 10 20 6
0 10 -9 10 -20z m1500 -706 c0 -8 -10 -14 -25 -14 -29 0 -33 15 -8 29 21 11
33 6 33 -15z"/>
<path d="M5370 5293 c-5 -198 2 -253 31 -253 5 0 11 12 15 28 3 15 12 46 20
70 15 45 19 148 7 155 -5 3 -23 8 -40 12 -28 5 -33 4 -33 -12z"/>
<path d="M5370 5004 c0 -14 4 -23 10 -19 6 3 10 15 10 26 0 10 -4 19 -10 19
-5 0 -10 -12 -10 -26z"/>
<path d="M3610 4924 c0 -11 -6 -14 -20 -9 -27 8 -37 -19 -16 -40 17 -18 22
-45 7 -45 -5 0 -13 9 -16 21 -12 36 -30 14 -38 -47 -9 -70 4 -114 28 -94 8 7
15 21 15 31 0 12 7 19 20 19 16 0 20 7 20 30 0 23 4 30 20 30 30 0 25 -40 -10
-73 -45 -45 -36 -54 95 -92 33 -10 76 -23 95 -30 36 -13 93 -30 195 -60 58
-17 90 -28 165 -55 61 -22 102 -24 112 -6 10 18 28 22 28 6 0 -12 37 -50 49
-50 5 0 11 -6 14 -13 3 -8 36 -28 74 -46 37 -18 75 -37 83 -42 8 -5 22 -12 30
-15 68 -26 97 -40 111 -51 8 -7 21 -13 27 -13 12 0 88 -33 207 -91 33 -16 65
-29 71 -29 5 0 26 17 47 38 30 31 37 47 43 93 10 83 3 90 -133 134 -65 21
-132 44 -150 51 -17 8 -38 14 -46 14 -8 0 -28 7 -43 15 -16 8 -37 15 -47 15
-10 0 -28 5 -40 12 -12 6 -35 15 -52 19 -16 4 -48 14 -70 23 -46 17 -60 9 -60
-32 0 -48 -20 -39 -23 11 -3 42 -5 47 -28 47 -28 0 -30 -12 -12 -70 7 -22 19
-40 26 -40 8 0 12 -5 10 -12 -5 -15 -28 -23 -28 -9 0 5 -13 25 -30 43 -24 25
-30 42 -30 75 l0 43 -137 66 c-76 36 -194 93 -263 126 -69 33 -146 71 -171 84
-26 13 -49 24 -52 24 -2 0 -7 -20 -10 -45 -6 -54 -11 -62 -32 -45 -17 14 -20
46 -5 55 19 12 11 45 -10 45 -11 0 -20 -7 -20 -16z"/>
<path d="M3657 4613 c-4 -3 -7 -91 -7 -195 0 -168 2 -189 17 -195 9 -4 114 0
232 7 119 8 279 15 356 15 132 0 140 -1 143 -20 8 -40 42 -65 92 -65 50 0 84
25 92 65 2 11 12 21 23 23 11 2 24 8 29 12 11 11 -67 32 -87 24 -10 -3 -18 2
-22 16 -4 12 -23 29 -43 37 -60 24 -145 63 -174 79 -14 8 -42 14 -62 14 -20 0
-36 4 -36 8 0 11 -86 52 -110 52 -11 0 -34 6 -52 14 -55 22 -131 45 -178 52
-25 4 -54 13 -65 20 -11 8 -31 14 -45 14 -14 1 -36 7 -50 15 -28 16 -43 18
-53 8z m83 -88 c0 -8 -4 -15 -10 -15 -5 0 -10 7 -10 15 0 8 5 15 10 15 6 0 10
-7 10 -15z m83 2 c3 -8 1 -20 -4 -28 -6 -10 -9 -7 -9 14 0 29 5 35 13 14z
m-91 -129 c-9 -9 -12 -7 -12 12 0 19 3 21 12 12 9 -9 9 -15 0 -24z m177 26
c39 -8 30 -24 -14 -24 -39 0 -65 8 -65 21 0 10 34 12 79 3z m269 -3 c19 -11
-18 -21 -85 -21 -51 0 -80 14 -46 23 31 8 118 7 131 -2z m-404 -87 c24 -9 19
-24 -8 -24 -13 0 -26 7 -30 15 -6 16 10 20 38 9z m460 -3 c8 -12 -44 -21 -115
-21 -56 0 -79 13 -41 23 32 9 151 7 156 -2z m160 -6 c8 -8 21 -15 29 -15 8 0
20 -7 27 -15 7 -8 25 -15 41 -15 31 0 40 -23 13 -34 -17 -6 -54 9 -54 23 0 5
-11 12 -25 15 -14 4 -25 11 -25 16 0 6 -15 10 -32 10 -45 0 -79 10 -72 21 9
15 81 10 98 -6z m-354 -24 c0 -12 -52 -21 -124 -21 -70 0 -108 8 -100 21 7 12
224 12 224 0z"/>
<path d="M4160 4200 c-30 -5 -100 -8 -156 -9 -55 -1 -156 -4 -222 -8 -105 -5
-122 -8 -122 -23 0 -36 240 -294 394 -425 32 -28 63 -55 70 -60 41 -37 156
-122 243 -179 77 -51 108 -66 123 -61 23 7 177 108 249 162 155 119 380 329
472 443 24 30 54 66 66 80 45 49 34 56 -88 64 -111 6 -111 6 -138 -20 -54 -55
-82 -54 -201 4 -62 30 -88 37 -150 40 -75 3 -75 3 -92 -27 -49 -89 -177 -94
-230 -10 l-23 38 -70 -1 c-38 0 -95 -4 -125 -8z"/>
<path d="M2907 6472 c-48 -53 -99 -110 -112 -127 -24 -29 -147 -208 -172 -250
-15 -27 -112 -222 -128 -260 -7 -16 -20 -47 -29 -68 -9 -21 -16 -45 -16 -55 0
-9 -7 -26 -15 -36 -8 -11 -15 -28 -15 -39 0 -11 -7 -40 -15 -66 -33 -106 -45
-155 -45 -185 0 -17 -7 -63 -15 -101 -20 -97 -20 -473 0 -570 8 -38 15 -84 15
-101 0 -30 12 -79 45 -185 8 -26 15 -54 15 -63 0 -8 6 -30 14 -48 8 -18 22
-53 31 -78 29 -77 69 -170 86 -200 4 -8 20 -37 34 -65 14 -27 35 -63 45 -80
11 -16 23 -37 27 -45 7 -15 122 -175 158 -220 93 -116 365 -358 490 -437 141
-89 254 -148 355 -188 25 -9 57 -23 72 -31 27 -14 68 -19 68 -8 0 16 -122 141
-152 156 -18 9 -53 26 -78 38 -57 27 -123 65 -178 101 -24 16 -45 29 -48 29
-15 0 -179 135 -267 219 -236 226 -414 492 -513 766 -74 206 -95 294 -120 510
-25 222 -3 548 48 715 6 19 15 51 19 70 7 34 16 62 47 145 40 109 139 306 197
395 33 50 145 202 155 210 4 3 30 31 58 63 51 56 52 58 52 122 0 46 -4 65 -12
64 -7 0 -53 -44 -101 -97z"/>
<path d="M5964 6557 c-3 -10 -4 -42 -2 -72 4 -48 10 -60 53 -107 72 -80 87
-98 135 -163 49 -66 52 -71 108 -165 82 -137 153 -291 182 -395 4 -16 13 -43
19 -60 37 -105 59 -224 78 -420 14 -145 14 -192 4 -325 -11 -144 -19 -194 -51
-325 -7 -27 -16 -66 -20 -85 -9 -37 -25 -85 -47 -137 -7 -17 -13 -36 -13 -41
0 -6 -7 -23 -15 -39 -8 -15 -37 -75 -65 -133 -29 -58 -60 -118 -71 -135 -10
-16 -22 -37 -26 -45 -4 -8 -11 -19 -15 -25 -28 -34 -78 -105 -78 -110 0 -22
-263 -296 -368 -383 -62 -51 -178 -130 -237 -162 -11 -6 -33 -19 -50 -30 -16
-11 -37 -23 -45 -26 -29 -12 -145 -65 -173 -80 -16 -8 -35 -14 -42 -14 -21 0
-25 -14 -14 -53 13 -47 36 -53 101 -26 113 46 281 134 335 175 17 13 34 24 38
24 21 0 229 173 331 274 97 98 274 310 274 330 0 2 16 28 36 57 20 30 43 68
51 84 7 17 24 48 36 70 59 104 157 369 174 465 2 14 10 48 18 75 27 98 38 203
43 397 2 128 0 226 -8 280 -7 46 -16 108 -19 138 -4 30 -13 75 -20 100 -7 25
-19 72 -28 105 -8 33 -21 75 -29 93 -8 18 -14 40 -14 48 0 9 -6 28 -14 42 -8
15 -24 52 -36 82 -86 217 -252 470 -426 650 -68 70 -84 82 -90 67z"/>
<path d="M2965 6320 c-16 -21 -58 -75 -92 -119 -35 -44 -63 -82 -63 -84 0 -3
-15 -27 -33 -53 -46 -70 -177 -337 -177 -363 0 -6 -6 -25 -14 -43 -32 -78 -39
-104 -66 -238 -6 -30 -16 -73 -22 -95 -16 -61 -22 -519 -8 -591 7 -32 16 -81
19 -109 14 -94 56 -238 111 -375 28 -69 104 -225 130 -265 11 -16 23 -37 27
-45 3 -8 19 -31 35 -51 15 -20 28 -40 28 -43 0 -6 44 -64 90 -121 29 -36 242
-249 285 -285 17 -15 53 -42 80 -60 28 -19 52 -38 55 -41 4 -5 37 -26 133 -83
108 -64 286 -146 318 -146 10 0 20 -4 24 -9 3 -5 20 -12 38 -16 17 -4 52 -13
77 -21 122 -37 322 -74 399 -74 45 0 38 21 -17 48 -26 12 -56 28 -66 35 -55
35 -239 159 -249 167 -7 6 -28 23 -48 38 -205 154 -468 416 -621 617 -51 68
-131 184 -141 205 -4 8 -16 29 -26 45 -25 38 -67 116 -99 180 -13 28 -30 62
-38 77 -12 22 -14 186 -14 992 0 766 -3 966 -12 966 -7 -1 -26 -18 -43 -40z"/>
<path d="M5968 6354 c-5 -4 -8 -442 -8 -973 l0 -966 -51 -100 c-54 -107 -59
-117 -101 -183 -16 -24 -28 -45 -28 -48 0 -7 -80 -122 -138 -199 -126 -166
-383 -430 -522 -535 -25 -18 -49 -38 -55 -45 -25 -27 -155 -119 -193 -135 -49
-21 -8 -30 135 -30 124 0 149 -3 165 -17 18 -16 21 -16 47 0 16 9 34 17 41 17
11 0 174 79 229 111 45 26 218 144 262 179 52 41 260 248 306 305 76 94 190
274 243 385 38 78 45 96 94 228 27 74 72 245 80 307 3 22 10 60 15 85 16 74
13 463 -4 545 -8 38 -15 81 -15 94 0 13 -7 49 -16 80 -9 31 -23 81 -31 111
-16 55 -29 93 -59 173 -22 56 -110 234 -134 272 -11 17 -23 37 -27 45 -3 8
-19 31 -35 51 -15 20 -28 40 -28 44 0 21 -163 209 -172 199z"/>
<path d="M4960 3104 c-14 -2 -63 -9 -110 -15 -47 -5 -113 -17 -147 -26 -71
-17 -77 -30 -39 -77 l24 -29 48 16 c56 18 196 37 270 37 52 0 84 -19 84 -50 0
-12 47 -121 69 -160 5 -10 25 -16 55 -16 47 -2 53 3 37 34 -14 28 -38 83 -61
142 -11 30 -25 64 -30 75 -4 11 -11 28 -14 38 -10 32 -88 45 -186 31z"/>
<path d="M3800 3035 c0 -8 4 -15 9 -15 18 0 86 -119 140 -242 19 -43 38 -78
42 -78 15 0 117 69 121 82 3 7 -4 28 -15 47 -10 19 -30 56 -44 82 -32 63 -65
97 -100 104 -15 3 -48 12 -73 20 -57 19 -80 19 -80 0z"/>
<path d="M4075 2981 c-6 -11 29 -84 49 -100 6 -5 32 -15 58 -20 41 -10 51 -8
104 19 68 34 94 52 94 61 0 4 -48 10 -107 14 -60 4 -125 14 -147 21 -46 17
-43 16 -51 5z"/>
<path d="M4813 2953 c-13 -2 -23 -9 -23 -14 0 -13 -137 -11 -159 3 -15 9 -25
9 -46 0 -14 -7 -36 -12 -48 -12 -12 0 -31 -7 -41 -15 -11 -8 -26 -15 -34 -15
-23 0 -182 -83 -255 -133 -38 -26 -70 -47 -72 -47 -2 0 -21 -12 -42 -26 -44
-30 -178 -94 -196 -94 -7 0 -21 -6 -32 -14 -11 -7 -31 -16 -45 -19 -14 -3 -38
-10 -55 -15 -39 -14 -129 -36 -230 -57 -64 -14 -123 -16 -297 -13 -227 3 -232
2 -222 -40 5 -17 19 -20 112 -28 192 -15 369 -8 477 21 49 12 100 26 178 46
21 5 45 13 55 18 9 5 37 17 62 26 50 19 115 49 145 68 10 7 37 23 60 37 22 13
47 29 56 35 137 85 219 129 297 159 23 9 59 23 80 31 20 8 54 17 75 21 20 3
40 10 43 15 3 5 24 9 47 9 23 0 55 7 71 15 16 9 55 15 90 15 85 0 167 11 160
21 -5 9 -169 10 -211 2z"/>
<path d="M4830 2883 c-41 -8 -96 -21 -122 -29 -26 -8 -55 -14 -65 -14 -10 0
-49 -12 -88 -26 -38 -14 -81 -29 -95 -34 -24 -8 -125 -59 -165 -83 -11 -7 -58
-36 -105 -66 -87 -56 -238 -136 -300 -159 -176 -66 -349 -101 -522 -109 l-138
-5 0 -39 c0 -22 -4 -39 -10 -39 -5 0 -10 12 -10 28 0 39 -11 50 -50 51 -19 1
-53 3 -75 4 l-40 2 2 -45 c3 -43 17 -113 49 -242 8 -32 14 -65 14 -74 0 -9 7
-40 16 -70 l15 -54 45 0 c42 0 44 1 44 30 0 17 5 30 10 30 6 0 10 -10 10 -22
0 -32 15 -52 34 -45 12 5 14 16 9 57 -4 31 -2 50 5 50 14 0 22 -25 22 -70 0
-46 8 -50 108 -50 129 0 281 24 413 65 26 8 54 15 63 15 8 0 32 7 53 16 169
72 176 75 313 164 47 30 90 57 95 59 6 2 26 14 45 26 32 20 160 77 250 110 19
7 62 20 95 28 33 8 83 21 110 28 68 17 180 27 298 28 102 1 110 5 88 49 -5 9
-17 37 -26 62 -10 25 -23 59 -31 75 -7 17 -15 38 -18 48 -6 20 -61 22 -147 4
-73 -16 -89 -30 -89 -79 0 -29 -6 -45 -22 -59 -27 -22 -58 -25 -58 -5 0 7 -3
28 -6 45 -6 31 -5 32 22 29 20 -2 29 2 32 15 6 28 -39 21 -84 -13 -47 -36 -63
-37 -97 -7 -53 45 -24 116 53 127 72 10 41 84 -37 86 -33 1 -42 -3 -46 -17 -6
-21 -27 -26 -27 -6 0 20 55 57 84 57 14 0 29 -6 33 -12 14 -23 55 -41 63 -29
9 16 36 4 55 -25 14 -22 18 -23 43 -11 15 8 52 19 82 26 79 17 87 23 71 58
-39 85 -29 78 -116 80 -44 0 -114 -6 -155 -14z m-65 -133 c4 -6 1 -17 -5 -26
-15 -18 -42 0 -33 22 6 16 29 19 38 4z m-96 -17 c11 -10 22 -29 23 -43 3 -21
-2 -26 -24 -28 -21 -3 -28 1 -28 14 0 10 -7 25 -16 35 -31 35 7 53 45 22z
m-49 -102 c-10 -21 3 -40 15 -21 3 5 13 10 21 10 23 0 13 -44 -11 -49 -11 -2
-23 -8 -26 -14 -14 -21 -39 2 -39 36 0 35 15 57 37 57 10 0 11 -5 3 -19z
m-170 -64 c63 -65 73 -148 23 -187 -49 -38 -105 -15 -143 61 -60 116 33 214
120 126z m275 -57 c-5 -24 -3 -30 10 -30 8 0 18 -7 21 -15 4 -9 19 -15 35 -15
19 0 29 5 29 15 0 10 -10 15 -30 15 -33 0 -38 11 -15 30 18 15 45 6 45 -15 0
-8 7 -15 15 -15 22 0 18 -27 -7 -44 -28 -20 -47 -20 -68 -1 -14 13 -37 18 -97
24 -16 1 -17 35 -3 62 7 12 21 19 41 19 29 0 30 -2 24 -30z m-463 -54 c14 -16
18 -33 15 -69 -5 -52 10 -70 38 -47 12 10 18 10 30 0 20 -16 19 -29 -2 -37
-10 -3 -34 -19 -54 -35 -63 -48 -69 -42 -69 72 0 93 -1 100 -20 100 -11 0 -20
-6 -20 -13 0 -7 -6 -22 -14 -32 -12 -17 -16 -17 -30 -6 -11 9 -14 21 -10 35
20 65 93 82 136 32z m-163 -101 c27 -31 31 -43 31 -94 0 -40 -5 -63 -15 -71
-8 -7 -15 -19 -15 -26 0 -8 -10 -14 -23 -14 -32 0 -40 10 -23 29 8 9 16 25 18
36 3 18 -2 20 -37 17 -80 -6 -116 78 -58 133 41 37 83 34 122 -10z m-929 -72
c0 -35 -14 -52 -24 -27 -8 21 -8 69 1 77 11 11 23 -15 23 -50z m733 4 c9 -23
17 -50 17 -60 0 -10 7 -32 16 -48 18 -36 15 -84 -6 -84 -16 0 -32 30 -51 94
-7 24 -23 50 -36 58 -29 19 -29 29 0 59 31 33 39 30 60 -19z m-398 3 c4 -7 11
-8 18 -2 7 5 30 8 52 7 49 -3 61 -25 12 -23 -44 1 -57 -7 -57 -38 0 -19 -5
-25 -17 -22 -11 2 -18 13 -18 25 -1 29 -13 40 -21 19 -6 -16 -35 -22 -48 -9
-8 8 43 52 61 53 6 0 15 -5 18 -10z m-245 -97 c0 -46 -14 -65 -24 -30 -8 30
-8 82 1 90 12 12 23 -17 23 -60z m419 31 c25 -42 26 -54 5 -54 -16 0 -48 65
-39 80 9 15 11 13 34 -26z m-265 1 c3 -8 14 -15 25 -15 23 0 34 -23 18 -39
-18 -18 -45 -13 -49 11 -4 30 -24 34 -33 6 -7 -21 -7 -22 -12 -3 -3 10 0 21 6
23 6 2 11 10 11 18 0 19 26 18 34 -1z m206 -10 c0 -28 -24 -34 -34 -9 -10 26
-7 34 14 34 15 0 20 -7 20 -25z m-426 -17 c9 -34 7 -86 -3 -92 -13 -8 -21 19
-21 70 0 47 14 59 24 22z m389 -24 c3 -3 3 -12 0 -20 -4 -10 -10 -11 -24 -3
-43 23 -85 -26 -54 -61 21 -23 19 -32 -7 -28 -20 3 -23 10 -26 55 -2 43 0 52
15 56 27 7 89 8 96 1z m-200 -33 c2 -11 15 -21 28 -23 33 -4 40 -47 9 -55 -17
-4 -21 -12 -17 -30 2 -13 0 -26 -4 -29 -5 -3 -9 -1 -9 5 0 5 -7 17 -16 26 -15
15 -26 86 -16 113 6 18 19 15 25 -7z m297 -1 c0 -11 7 -20 15 -20 17 0 21 -75
5 -100 -15 -23 -23 -4 -21 50 1 49 1 50 -29 50 -18 0 -30 5 -30 13 0 20 10 27
37 27 16 0 23 -6 23 -20z m-390 -87 c0 -43 -12 -57 -24 -27 -8 21 -8 79 1 87
12 12 23 -17 23 -60z m300 22 c0 -8 -6 -15 -14 -15 -17 0 -28 14 -19 24 12 12
33 6 33 -9z m-365 -102 c-7 -17 -8 -16 -15 2 -11 26 -12 89 -2 99 10 11 26
-80 17 -101z m429 91 c7 -19 -1 -34 -19 -34 -8 0 -16 4 -19 9 -9 14 4 41 19
41 7 0 16 -7 19 -16z m-165 -37 c14 -17 4 -27 -26 -27 -14 0 -23 -6 -23 -15 0
-11 12 -15 44 -15 40 0 44 2 50 30 7 37 32 39 48 5 12 -26 23 -31 33 -15 8 13
55 13 55 0 0 -5 -11 -12 -24 -16 -14 -3 -27 -12 -30 -20 -7 -19 -26 -18 -41 3
-13 17 -14 17 -32 0 -25 -22 -90 -22 -115 0 -21 19 -24 43 -4 43 7 0 16 9 19
20 6 23 29 26 46 7z"/>
<path d="M4365 2540 c-10 -17 6 -74 29 -104 18 -21 29 -27 45 -21 26 8 27 30
1 80 -26 51 -59 71 -75 45z"/>
<path d="M4006 2324 c-6 -15 9 -54 20 -54 18 0 44 24 44 39 0 31 -53 43 -64
15z"/>
<path d="M4852 2739 c2 -6 8 -10 13 -10 5 0 11 4 13 10 2 6 -4 11 -13 11 -9 0
-15 -5 -13 -11z"/>
<path d="M5135 2735 c-27 -7 -66 -14 -85 -14 -20 -1 -45 -7 -56 -15 -11 -8
-35 -16 -54 -18 -47 -4 -52 -28 -5 -28 20 0 46 6 58 13 12 6 71 14 131 17 105
5 125 11 108 36 -12 19 -45 22 -97 9z"/>
<path d="M4830 2650 c-11 -7 -6 -10 20 -10 26 0 31 3 20 10 -8 5 -17 10 -20
10 -3 0 -12 -5 -20 -10z"/>
<path d="M5220 2645 c0 -8 4 -23 9 -33 5 -9 23 -53 41 -97 17 -44 37 -93 45
-110 27 -64 35 -86 35 -99 0 -10 -35 -13 -157 -12 -108 1 -170 -3 -195 -12
-42 -15 -42 -16 -28 -59 l11 -30 152 1 c84 1 200 -3 260 -7 95 -8 107 -7 107
7 0 9 -4 24 -9 34 -5 9 -23 53 -41 97 -17 44 -38 96 -47 115 -45 103 -69 165
-78 198 -5 19 -13 22 -56 22 -37 0 -49 -4 -49 -15z"/>
<path d="M4886 2543 c-12 -12 -6 -33 9 -33 8 0 15 6 15 14 0 17 -14 28 -24 19z"/>
<path d="M4978 2353 c-10 -2 -18 -9 -18 -14 0 -15 322 -7 328 9 3 9 -30 12
-145 11 -81 -1 -156 -3 -165 -6z"/>
<path d="M4820 2315 c-19 -7 -46 -14 -60 -14 -14 -1 -38 -8 -54 -16 -15 -8
-34 -15 -42 -15 -29 0 -234 -98 -304 -145 -29 -19 -53 -35 -55 -35 -2 0 -31
-18 -64 -40 -33 -22 -71 -45 -83 -50 -13 -6 -30 -14 -38 -19 -56 -33 -194 -82
-325 -115 -170 -42 -221 -48 -432 -45 -202 3 -208 2 -211 -17 -2 -12 3 -25 10
-31 7 -5 73 -15 147 -22 190 -18 357 -1 532 54 26 8 54 15 63 15 8 0 30 6 48
14 18 8 53 22 78 31 25 9 52 21 60 26 8 5 35 19 60 32 25 12 83 48 130 78 47
31 101 64 120 75 19 10 42 24 50 30 45 32 280 114 404 141 22 4 44 17 50 28 6
10 20 27 31 37 19 17 19 17 -30 17 -27 0 -66 -7 -85 -14z"/>
<path d="M4845 2190 c-16 -5 -42 -12 -57 -15 l-28 -5 0 -254 c0 -194 3 -255
13 -258 6 -2 41 -2 77 1 l65 6 0 265 c0 258 -1 265 -20 267 -11 1 -33 -3 -50
-7z"/>
<path d="M4656 2135 c-11 -8 -27 -15 -35 -15 -24 0 -191 -86 -277 -143 l-79
-53 0 -130 0 -129 49 -5 c45 -5 50 -8 72 -49 26 -49 83 -121 95 -121 19 0 78
64 97 103 27 56 45 71 81 64 19 -4 33 -1 40 7 8 9 11 87 9 247 -3 199 -5 234
-18 236 -8 2 -24 -4 -34 -12z"/>
<path d="M4179 1875 c-13 -8 -31 -17 -39 -20 -8 -4 -31 -15 -50 -25 l-35 -19
0 -73 0 -73 75 -6 c41 -3 78 -4 83 -2 10 6 9 221 -1 227 -4 3 -19 -2 -33 -9z"/>
<path d="M4057 1586 c-7 -17 18 -239 28 -255 3 -6 17 -11 31 -11 24 0 24 0 17
73 -4 39 -8 88 -8 107 l0 35 77 3 c85 3 79 6 151 -82 37 -45 100 -86 133 -86
45 0 184 109 184 145 0 19 24 25 107 25 l75 0 -6 -77 c-2 -43 -6 -91 -8 -108
-3 -26 0 -30 22 -30 34 0 47 43 51 170 l4 100 -137 3 c-96 2 -138 -1 -138 -8
0 -22 -89 -126 -123 -145 l-35 -19 -35 27 c-39 30 -100 102 -110 130 -6 15
-22 17 -141 17 -106 0 -135 -3 -139 -14z"/>
<path d="M4166 1481 c-4 -5 1 -42 11 -83 13 -60 23 -80 55 -112 37 -37 44 -52
50 -106 4 -29 60 -70 92 -68 12 1 36 -4 54 -11 18 -8 47 -11 69 -7 21 3 56 8
78 11 80 12 124 48 125 101 0 23 12 45 45 82 28 31 45 59 45 75 0 13 7 44 15
67 8 23 12 46 9 51 -6 11 -114 12 -114 1 0 -11 -98 -112 -109 -112 -5 0 -14
-6 -20 -14 -15 -18 -76 -27 -126 -19 -32 5 -53 20 -111 80 -69 69 -74 73 -117
73 -25 0 -48 -4 -51 -9z"/>
<path d="M4070 1243 c-36 -44 -35 -83 4 -122 68 -68 190 6 154 93 -18 44 -47
65 -90 66 -30 0 -42 -6 -68 -37z m106 -18 c8 -13 12 -30 8 -36 -5 -9 -10 -5
-16 10 -6 18 -14 22 -33 19 -15 -3 -25 -1 -25 7 0 33 44 34 66 0z m0 -80 c-4
-11 -16 -15 -38 -13 -46 4 -47 26 -1 30 46 4 47 3 39 -17z"/>
<path d="M4760 1238 c-36 -50 -37 -54 -5 -99 41 -61 126 -60 159 2 35 65 -10
139 -85 139 -34 0 -43 -5 -69 -42z m96 4 c15 -10 28 -52 16 -52 -6 0 -13 7
-16 16 -4 11 -14 15 -31 12 -16 -4 -25 -1 -25 8 0 20 35 30 56 16z m17 -103
c-14 -14 -75 -7 -81 10 -3 10 2 13 21 9 14 -3 32 -1 39 3 17 11 35 -8 21 -22z"/>
<path d="M4241 1096 c-18 -21 3 -56 34 -56 32 0 45 38 19 57 -23 17 -39 17
-53 -1z"/>
<path d="M4686 1097 c-23 -17 -17 -51 10 -55 28 -4 51 24 38 46 -14 22 -27 24
-48 9z"/>
<path d="M4347 1063 c-14 -13 -6 -50 13 -68 20 -18 21 -18 45 5 29 28 30 33 9
54 -16 16 -55 22 -67 9z m53 -38 c0 -8 -7 -15 -15 -15 -16 0 -20 12 -8 23 11
12 23 8 23 -8z"/>
<path d="M4562 1058 c-18 -18 -15 -42 7 -62 18 -17 21 -17 45 -1 41 27 29 75
-19 75 -12 0 -26 -5 -33 -12z m48 -39 c0 -5 -7 -9 -15 -9 -15 0 -20 12 -9 23
8 8 24 -1 24 -14z"/>
<path d="M4426 948 c-8 -19 -10 -37 -5 -42 5 -6 9 -17 9 -26 0 -8 13 -21 28
-28 24 -10 34 -10 60 4 28 14 32 20 32 58 0 53 -13 66 -67 66 -39 0 -44 -3
-57 -32z m89 -22 c0 -25 -15 -29 -39 -11 -22 17 -12 37 17 33 14 -2 22 -10 22
-22z m-15 -44 c0 -13 -12 -22 -22 -16 -10 6 -1 24 13 24 5 0 9 -4 9 -8z"/>
</g>
</svg>
